<svg xmlns="http://www.w3.org/2000/svg" viewBox="0 0 640 460" role="img" aria-label="Para ve altın illüstrasyonu">
  <defs>
    <linearGradient id="coin" x1="0" y1="0" x2="1" y2="1">
      <stop offset="0" stop-color="#ffe083" />
      <stop offset="1" stop-color="#f3aa28" />
    </linearGradient>
    <linearGradient id="cash" x1="0" y1="0" x2="1" y2="1">
      <stop offset="0" stop-color="#d9fff5" />
      <stop offset="1" stop-color="#8ef0dc" />
    </linearGradient>
    <filter id="softShadow" x="-20%" y="-20%" width="140%" height="140%">
      <feDropShadow dx="0" dy="10" stdDeviation="8" flood-color="#0b2742" flood-opacity="0.14" />
    </filter>
  </defs>

  <rect width="640" height="460" fill="#f5fcfa" />

  <g opacity="0.9" filter="url(#softShadow)">
    <g transform="translate(54 42) rotate(-14)">
      <rect x="0" y="0" width="158" height="86" rx="18" fill="url(#cash)" stroke="#17a78f" stroke-width="5" />
      <circle cx="79" cy="43" r="22" fill="#ffffff" opacity="0.86" />
      <path d="M23 28h22M113 58h22" stroke="#13795f" stroke-width="8" stroke-linecap="round" />
      <text x="79" y="52" text-anchor="middle" font-family="Arial, sans-serif" font-size="32" font-weight="900" fill="#173f5f">₺</text>
    </g>

    <g transform="translate(444 52) rotate(13)">
      <rect x="0" y="0" width="144" height="78" rx="17" fill="#e8fff9" stroke="#14b8a6" stroke-width="5" />
      <circle cx="72" cy="39" r="20" fill="#ffffff" opacity="0.85" />
      <path d="M20 24h20M104 54h20" stroke="#13795f" stroke-width="8" stroke-linecap="round" />
      <text x="72" y="47" text-anchor="middle" font-family="Arial, sans-serif" font-size="28" font-weight="900" fill="#173f5f">$</text>
    </g>

    <g transform="translate(58 294) rotate(10)">
      <rect x="0" y="0" width="152" height="82" rx="18" fill="#fff7d8" stroke="#f0b33b" stroke-width="5" />
      <path d="M25 28h102M25 54h62" stroke="#d48a1c" stroke-width="8" stroke-linecap="round" />
      <circle cx="122" cy="42" r="22" fill="url(#coin)" stroke="#d48a1c" stroke-width="5" />
    </g>
  </g>

  <g filter="url(#softShadow)">
    <circle cx="244" cy="74" r="38" fill="url(#coin)" stroke="#d48a1c" stroke-width="6" />
    <text x="244" y="88" text-anchor="middle" font-family="Arial, sans-serif" font-size="42" font-weight="900" fill="#8a5a10">₺</text>

    <circle cx="392" cy="96" r="28" fill="url(#coin)" stroke="#d48a1c" stroke-width="5" />
    <text x="392" y="106" text-anchor="middle" font-family="Arial, sans-serif" font-size="30" font-weight="900" fill="#8a5a10">₺</text>

    <circle cx="523" cy="294" r="42" fill="url(#coin)" stroke="#d48a1c" stroke-width="6" />
    <text x="523" y="309" text-anchor="middle" font-family="Arial, sans-serif" font-size="44" font-weight="900" fill="#8a5a10">₺</text>

    <circle cx="424" cy="356" r="27" fill="url(#coin)" stroke="#d48a1c" stroke-width="5" />
    <text x="424" y="366" text-anchor="middle" font-family="Arial, sans-serif" font-size="29" font-weight="900" fill="#8a5a10">₺</text>
  </g>

  <g filter="url(#softShadow)">
    <g transform="translate(272 316) rotate(-5)">
      <path d="M0 62 24 0h78l24 62Z" fill="#ffcf5f" stroke="#d48a1c" stroke-width="6" stroke-linejoin="round" />
      <path d="M24 0 63 62 102 0" fill="none" stroke="#fff1a8" stroke-width="6" stroke-linejoin="round" opacity="0.9" />
    </g>

    <g transform="translate(162 180) rotate(13)">
      <path d="M0 50 20 0h64l20 50Z" fill="#ffd86f" stroke="#d48a1c" stroke-width="5" stroke-linejoin="round" />
      <path d="M20 0 52 50 84 0" fill="none" stroke="#fff1a8" stroke-width="5" stroke-linejoin="round" opacity="0.9" />
    </g>

    <g transform="translate(456 182) rotate(-12)">
      <path d="M0 54 22 0h70l22 54Z" fill="#ffcf5f" stroke="#d48a1c" stroke-width="5" stroke-linejoin="round" />
      <path d="M22 0 57 54 92 0" fill="none" stroke="#fff1a8" stroke-width="5" stroke-linejoin="round" opacity="0.9" />
    </g>
  </g>

  <g fill="none" stroke-linecap="round" opacity="0.72">
    <path d="M268 160c24-22 56-23 82 0" stroke="#14b8a6" stroke-width="10" />
    <path d="M300 416c34 13 68 8 94-15" stroke="#14b8a6" stroke-width="9" />
    <path d="M54 206c34 14 70 7 94-18" stroke="#f0b33b" stroke-width="9" />
    <path d="M502 414c31-3 53-17 66-42" stroke="#f0b33b" stroke-width="9" />
  </g>
</svg>
